<svg width="945" height="560" viewBox="0 0 945 560" fill="none" xmlns="http://www.w3.org/2000/svg">
<path opacity="0.1" d="M877 359.047C877.015 374.193 875.247 389.285 871.736 403.987C870.554 408.941 869.182 413.792 867.618 418.54C865.705 424.401 863.488 430.15 860.976 435.763C859.711 438.602 858.373 441.385 856.963 444.112C856.986 459.643 853.901 475.011 847.902 489.244C837.057 514.781 817.719 535.429 793.413 547.425C778.216 554.94 761.607 558.891 744.769 559H166.496C140.768 559.056 115.484 552.052 93.2144 538.698L92.8719 538.497C89.6999 536.574 86.6074 534.536 83.5943 532.386C76.815 527.533 70.4458 522.091 64.5554 516.12C56.5827 508.046 49.5573 499.025 43.6251 489.244C29.6924 466.318 22.3116 439.77 22.3375 412.676C8.22764 387.019 0 356.285 0 323.259C0 281.591 13.0749 243.581 34.5561 214.807C39.0345 208.795 43.9401 203.139 49.2318 197.885C54.4531 192.686 60.0651 187.925 66.0147 183.648C70.7749 180.223 75.7498 177.129 80.9064 174.389C83.0583 173.254 85.2175 172.182 87.4141 171.186C89.3425 170.299 91.2933 169.473 93.2665 168.694C95.6343 167.763 98.0318 166.906 100.459 166.124C102.887 165.343 105.282 164.658 107.644 164.072C111.119 163.192 114.653 162.477 118.247 161.927C121.226 161.472 124.204 161.155 127.182 160.916C129.55 160.731 131.94 160.63 134.345 160.6H135.648C138.299 160.6 140.935 160.708 143.548 160.893C143.824 160.322 144.122 159.743 144.397 159.18C145.439 157.12 146.519 155.067 147.606 153.061C147.604 153.043 147.604 153.025 147.606 153.007C147.792 152.652 147.978 152.305 148.172 151.965C149.051 150.321 149.967 148.693 150.905 147.081C151.337 146.309 151.761 145.584 152.2 144.858C152.293 144.678 152.395 144.503 152.506 144.334C152.952 143.562 153.406 142.79 153.868 142.019C156.166 138.212 158.557 134.472 161.038 130.799L161.671 129.858C162.059 129.287 162.416 128.731 162.848 128.16C163.875 126.671 164.933 125.174 165.997 123.708C166.742 122.659 167.487 121.617 168.291 120.621C170.227 118.049 172.212 115.477 174.247 112.905C176.283 110.333 178.397 107.794 180.591 105.289C180.889 104.942 181.187 104.602 181.5 104.263L184.679 100.667C184.835 100.497 184.969 100.343 185.118 100.189C185.498 99.7643 185.863 99.3399 186.272 98.9309C187.977 97.0559 189.727 95.2194 191.484 93.3906C200.427 84.16 209.954 75.5578 220.002 67.6414C220.397 67.3173 220.799 67.0086 221.193 66.7C223.085 65.2262 225.006 63.7678 226.927 62.3325C237.493 54.477 248.538 47.3374 259.994 40.9584C260.783 40.4877 261.587 40.0479 262.399 39.6158C272.668 33.9853 283.23 28.9466 294.036 24.5227C299.926 22.1075 305.949 19.8389 312.01 17.7632C316.046 16.3897 320.096 15.0857 324.199 13.8588C330.612 11.9451 337.07 10.2296 343.573 8.71201C362.731 4.25728 382.22 1.50543 401.829 0.486439C407.786 0.172643 413.81 0.0106028 419.9 0.000314442C449.289 -0.0400062 478.563 3.79755 507.016 11.4204C507.311 11.8812 507.713 12.2568 508.186 12.5119C508.659 12.767 509.186 12.8933 509.719 12.8788H512.221C513.308 13.1875 514.388 13.4961 515.475 13.8202C521.546 15.631 527.53 17.6089 533.427 19.754L534.916 20.3096C549.471 25.6732 563.633 32.1202 577.29 39.6003C589.602 46.327 601.456 53.917 612.77 62.3171C614.512 63.6135 616.229 64.9201 617.922 66.237C619.977 64.8738 622.067 63.5672 624.192 62.3171C632.396 57.4747 641.11 53.6247 650.163 50.843C669.088 45.0389 689.113 44.2273 708.419 48.4818C733.176 53.9218 755.588 67.4253 773.689 86.6312C781.059 94.4893 787.619 103.122 793.264 112.388C793.674 113.052 794.083 113.723 794.478 114.402C799.329 122.604 803.499 131.218 806.942 140.151C807.069 140.483 807.195 140.792 807.307 141.116C810.486 149.481 813.049 158.084 814.976 166.85C815.065 167.297 815.17 167.737 815.259 168.185C817.061 176.668 818.285 185.273 818.922 193.934C818.922 194.243 818.922 194.559 818.982 194.883C819.295 199.364 819.454 203.891 819.458 208.464C819.458 212.553 819.324 216.612 819.079 220.64C819.079 221.08 819.019 221.535 818.982 221.99C818.915 223.156 818.818 224.305 818.721 225.478C824.408 230.232 829.73 235.435 834.641 241.042C836.81 243.496 838.909 246.042 840.94 248.681C847.124 256.713 852.559 265.335 857.172 274.43C869.763 299.061 877 328.036 877 359.047Z" fill="#F9A826"/>
<path d="M592.017 27.6922C592.017 30.7391 591.289 33.3713 589.833 35.5887C588.597 37.4507 587.057 38.771 585.212 39.5497C586.397 40.0575 587.362 40.8954 588.107 42.0633C588.851 43.2313 589.224 44.4754 589.224 45.7957C589.224 49.0796 587.472 51.4832 583.968 53.0067C581.26 54.1916 577.705 54.784 573.304 54.784C569.512 54.784 565.441 54.4709 561.091 53.8446C560.972 49.9006 560.727 43.4683 560.355 34.5477C560.101 29.7573 559.72 23.1896 559.212 14.8446C562.428 14.2183 566.499 13.9051 571.425 13.9051C585.153 13.9051 592.017 18.5008 592.017 27.6922ZM581.683 32.4657C581.683 31.1623 581.158 30.1636 580.108 29.4696C579.161 28.8433 577.916 28.547 576.376 28.5809L575.995 36.2235C579.787 36.3589 581.683 35.1063 581.683 32.4657ZM580.845 44.5262C580.845 42.5627 579.44 41.5809 576.63 41.5809C576.342 41.5809 576.046 41.5978 575.741 41.6317L575.589 47.8524C579.093 48.0047 580.845 46.896 580.845 44.5262ZM620.378 14.8446L619.286 30.9168C618.66 30.8153 617.306 30.6375 615.224 30.3836C613.802 30.2482 612.245 30.1636 610.552 30.1297L610.171 34.9793C612.033 35.0301 615.071 34.9878 619.286 34.8524C619.1 35.4787 618.804 36.6467 618.398 38.3563C618.161 39.3888 617.949 40.5822 617.763 41.9364C617.272 41.8179 616.045 41.6655 614.081 41.4793C613.167 41.4286 611.813 41.4116 610.019 41.4286L609.765 47.0907C611.034 47.0737 613.37 46.9637 616.773 46.7606C617.416 46.7098 618.474 46.5067 619.946 46.1512C619.811 46.676 619.498 47.937 619.007 49.9344C618.77 50.967 618.482 52.2704 618.144 53.8446H595.419L594.683 33.9383C594.547 29.3849 594.217 23.0204 593.692 14.8446H620.378ZM646.759 30.8153C645.506 30.5275 644.558 30.3836 643.915 30.3836C643.12 30.3836 642.392 30.6545 641.732 31.1961C640.936 31.8563 640.538 32.7111 640.538 33.7606C640.538 34.5731 641.266 36.1388 642.722 38.4579C644.177 40.7769 644.905 42.9097 644.905 44.8563C644.905 47.6831 643.83 50.0021 641.681 51.8133C639.633 53.5568 637.102 54.4286 634.089 54.4286C631.313 54.4286 629.265 54.2339 627.944 53.8446C627.792 53.0659 627.53 51.7964 627.157 50.036C626.92 49.0881 626.59 47.827 626.167 46.2528C628.029 46.7098 629.282 46.9383 629.925 46.9383C632.447 46.9383 633.708 45.9819 633.708 44.0692C633.708 42.6812 633.2 41.437 632.185 40.3368C630.526 38.881 628.867 37.4168 627.208 35.9442C623.992 33.1004 622.384 29.7235 622.384 25.8133C622.384 21.7339 623.907 18.6447 626.954 16.5457C629.612 14.7176 633.149 13.8036 637.567 13.8036C640.073 13.8036 642.883 14.1675 645.997 14.8954L646.759 30.8153ZM679.741 14.8446L679.005 30.8153C678.345 30.7137 677.287 30.5868 675.831 30.4344C674.934 30.3836 673.478 30.3329 671.464 30.2821C671.362 31.2808 671.185 33.6929 670.931 37.5184C670.745 41.2254 670.44 46.6675 670.017 53.8446H657.728C657.592 50.4253 657.338 45.051 656.966 37.7215C656.797 35.1825 656.619 32.7026 656.433 30.2821L652.421 30.4344L648.79 30.8153L648.155 14.8446H679.741ZM725.698 33.4051C725.698 37.5692 724.937 41.3355 723.413 44.7039C721.788 48.3094 719.52 50.84 716.608 52.2957C717.235 52.922 718.115 53.7515 719.249 54.784C720.806 55.9689 722.177 56.8661 723.362 57.4754C722.736 58.1017 721.695 59.0243 720.239 60.243C719.41 60.8185 718.267 61.4618 716.812 62.1727C715.61 61.2079 714.62 60.2345 713.841 59.2528C712.927 58.0679 712.275 57.0438 711.886 56.1805C712.258 55.842 712.825 55.1141 713.587 53.9969C711.945 54.6909 710.303 55.0379 708.661 55.0379C703.465 55.0379 699.258 52.8543 696.042 48.4872C693.012 44.3908 691.497 39.3635 691.497 33.4051C691.497 26.9898 693.148 21.9709 696.448 18.3485C699.546 14.9461 703.617 13.245 708.661 13.245C713.604 13.245 717.633 14.9631 720.747 18.3993C724.048 22.0386 725.698 27.0405 725.698 33.4051ZM713.485 37.9754C713.485 33.2697 711.928 30.9168 708.814 30.9168C707.138 30.9168 705.885 31.6193 705.056 33.0243C704.328 34.2599 703.998 35.9273 704.066 38.0262C704.15 39.9728 704.573 41.7417 705.335 43.3329C706.232 45.1779 707.341 46.1004 708.661 46.1004C709.965 46.1004 711.116 45.161 712.114 43.2821C713.028 41.5724 713.485 39.8036 713.485 37.9754ZM762.032 14.8446L761.448 31.2723C761.279 35.9611 761.194 43.0536 761.194 52.5497C756.861 54.1069 752.443 54.8856 747.941 54.8856C742.388 54.8856 738.165 53.7769 735.271 51.5594C732.816 49.6805 731.081 46.7521 730.066 42.7743C729.473 40.4891 728.914 36.3081 728.39 30.2313C727.882 24.6115 727.569 19.4826 727.45 14.8446H743.827C743.743 17.0789 743.641 20.7183 743.523 25.7625C743.472 28.5724 743.489 32.5588 743.573 37.7215C743.59 41.6486 743.929 44.2977 744.589 45.6688C745.283 47.1245 746.671 47.8524 748.753 47.8524C749.345 47.8524 750.006 47.6831 750.733 47.3446C750.733 43.8576 750.632 38.314 750.429 30.7137C750.26 26.9051 749.946 21.6154 749.489 14.8446H762.032ZM795.167 53.8446H781.278L780.339 50.4676C779.95 50.62 778.976 51.1362 777.419 52.0164C776.42 52.6597 775.312 53.5145 774.093 54.5809L772.646 51.5086C772.358 50.8993 771.943 50.0444 771.401 48.9442L770.03 53.8446H762.667C763.75 49.6636 765.426 42.7658 767.694 33.1512C769.082 26.7189 770.242 20.6167 771.173 14.8446H786.433C786.907 17.5021 788.202 23.689 790.317 33.4051C791.485 38.4832 793.102 45.2964 795.167 53.8446ZM779.146 45.5164C778.858 44.6193 778.35 43.1636 777.622 41.1493C777.182 40.0321 776.513 38.4917 775.616 36.5282C775.227 37.5099 774.618 39.118 773.788 41.3524C773.331 42.6388 772.789 44.3908 772.163 46.6082C772.671 46.6082 773.822 46.5067 775.616 46.3036C776.7 46.1512 777.876 45.8888 779.146 45.5164ZM822.462 46.1512C822.293 46.8283 821.98 48.1063 821.523 49.9852C821.286 51.0855 821.082 52.3719 820.913 53.8446H797.935C797.85 49.8667 797.638 43.3159 797.3 34.1922C797.08 29.5204 796.682 23.0711 796.107 14.8446H813.728L812.28 47.1922C813.922 47.1922 816.385 47.0145 819.669 46.659C820.346 46.5913 821.277 46.422 822.462 46.1512ZM841.302 14.8446L840.312 35.5887C840.125 40.0575 839.905 46.1428 839.651 53.8446H825.407L823.681 14.8446H841.302ZM874.386 14.8446L873.65 30.8153C872.989 30.7137 871.931 30.5868 870.476 30.4344C869.579 30.3836 868.123 30.3329 866.108 30.2821C866.007 31.2808 865.829 33.6929 865.575 37.5184C865.389 41.2254 865.084 46.6675 864.661 53.8446H852.372C852.237 50.4253 851.983 45.051 851.61 37.7215C851.441 35.1825 851.263 32.7026 851.077 30.2821L847.066 30.4344L843.435 30.8153L842.8 14.8446H874.386ZM911.025 14.8446L906.251 23.6805C904.965 26.1011 903.23 29.4865 901.046 33.8368C900.843 36.2066 900.58 39.5666 900.259 43.9168C900.157 46.2359 899.988 49.5451 899.751 53.8446H886.751C886.683 51.7456 886.531 48.3856 886.294 43.7645C886.159 42.021 885.845 38.7118 885.355 33.8368C884.474 32.0256 883.002 29.0887 880.937 25.0262C879.599 22.5549 877.653 19.161 875.097 14.8446H893.835C894.14 15.9448 894.673 17.6799 895.435 20.0497L897.872 26.9051C898.515 25.3478 899.387 23.0457 900.487 19.9989C900.86 18.797 901.342 17.0789 901.935 14.8446H911.025ZM621.8 92.3446C621.444 97.6766 620.924 107.401 620.238 121.518C619.883 130.202 619.616 139.977 619.439 150.845H605.651L605.271 132.906L591.826 152.254L577.316 133.058L576.935 150.845H563.224C563.046 145.03 562.703 135.204 562.195 121.366C561.84 113.393 561.192 103.72 560.253 92.3446H582.076C582.838 94.1981 584.146 97.1942 585.999 101.333C587.421 104.278 589.363 107.757 591.826 111.768C592.918 110.042 594.924 106.474 597.844 101.066C598.885 99.0604 600.218 96.1532 601.843 92.3446H621.8ZM671.502 150.845H650.669L649.26 145.779C648.676 146.008 647.216 146.782 644.88 148.102C643.382 149.067 641.719 150.349 639.891 151.949L637.72 147.341C637.288 146.427 636.666 145.144 635.854 143.494L633.797 150.845H622.752C624.377 144.573 626.891 134.226 630.293 119.805C632.375 110.156 634.114 101.003 635.511 92.3446H658.4C659.111 96.3309 661.054 105.611 664.228 120.185C665.98 127.803 668.404 138.022 671.502 150.845ZM647.47 138.352C647.038 137.007 646.276 134.823 645.185 131.802C644.524 130.126 643.522 127.815 642.176 124.87C641.592 126.343 640.678 128.755 639.434 132.106C638.748 134.036 637.936 136.664 636.996 139.99C637.758 139.99 639.484 139.838 642.176 139.533C643.801 139.305 645.566 138.911 647.47 138.352ZM719.719 92.3446C719.363 97.4735 718.868 106.424 718.233 119.195C717.853 128.59 717.535 139.393 717.281 151.606C713.955 148.991 708.89 145.094 702.085 139.914C699.14 137.857 694.747 134.772 688.907 130.659L688.526 150.845H676.263C676.06 145.69 675.59 135.966 674.854 121.671C674.219 110.093 673.571 100.317 672.911 92.3446H692.03L706.198 105.751C706.198 102.679 706.148 100.266 706.046 98.5145C705.97 96.9657 705.817 94.909 705.589 92.3446H719.719ZM773.801 125.822C773.547 127.98 773.166 132.056 772.658 138.048C772.404 141.628 772.163 145.868 771.935 150.768C768.532 151.759 763.568 152.254 757.043 152.254C747.344 152.254 739.46 150.07 733.392 145.703C726.232 140.498 722.651 132.754 722.651 122.471C722.651 112.619 725.787 104.926 732.059 99.3905C737.949 94.1854 745.706 91.5829 755.329 91.5829C758.96 91.5829 762.857 91.8622 767.022 92.4207L769.116 116.453C767.441 115.818 765.054 115.501 761.956 115.501C758.021 115.501 754.466 116.707 751.292 119.119C747.737 121.836 745.96 125.289 745.96 129.478C745.96 133.439 747.471 136.499 750.492 138.657C753.031 140.485 755.964 141.348 759.29 141.247L758.681 133.592C758.528 132.017 758.186 129.428 757.652 125.822H773.801ZM826.893 120.338C826.893 129.301 824.582 136.88 819.961 143.075C815.111 149.55 808.903 152.787 801.337 152.787C793.542 152.787 787.232 149.524 782.408 142.999C777.863 136.854 775.591 129.301 775.591 120.338C775.591 110.765 778.066 103.25 783.018 97.7909C787.69 92.662 793.796 90.0975 801.337 90.0975C808.751 90.0975 814.794 92.6747 819.466 97.8289C824.417 103.313 826.893 110.816 826.893 120.338ZM808.573 127.041C808.573 119.982 806.187 116.453 801.413 116.453C796.767 116.453 794.443 120.008 794.443 127.117C794.443 129.961 795.053 132.614 796.272 135.077C797.643 137.845 799.331 139.228 801.337 139.228C803.292 139.228 805.019 137.819 806.517 135.001C807.888 132.436 808.573 129.783 808.573 127.041ZM869.854 92.3446L868.216 116.453C867.276 116.301 865.245 116.034 862.122 115.653C859.989 115.45 857.653 115.323 855.114 115.272L854.543 122.547C857.336 122.623 861.894 122.559 868.216 122.356C867.937 123.296 867.492 125.048 866.883 127.612C866.527 129.161 866.21 130.951 865.931 132.982C865.194 132.805 863.354 132.576 860.408 132.297C859.037 132.221 857.006 132.195 854.315 132.221L853.934 140.714C855.838 140.688 859.342 140.523 864.445 140.219C865.41 140.142 866.997 139.838 869.206 139.305C869.003 140.092 868.533 141.983 867.797 144.979C867.441 146.528 867.01 148.483 866.502 150.845H832.415L831.311 120.985C831.108 114.155 830.612 104.608 829.825 92.3446H869.854ZM909.425 116.301C907.546 115.869 906.124 115.653 905.159 115.653C903.966 115.653 902.874 116.059 901.884 116.872C900.691 117.862 900.094 119.144 900.094 120.719C900.094 121.937 901.186 124.286 903.369 127.764C905.553 131.243 906.645 134.442 906.645 137.362C906.645 141.602 905.032 145.081 901.808 147.798C898.735 150.413 894.94 151.721 890.42 151.721C886.256 151.721 883.184 151.429 881.203 150.845C880.975 149.677 880.581 147.772 880.023 145.132C879.667 143.71 879.172 141.818 878.537 139.457C881.33 140.142 883.209 140.485 884.174 140.485C887.957 140.485 889.849 139.051 889.849 136.181C889.849 134.099 889.087 132.233 887.564 130.583C885.075 128.399 882.587 126.203 880.099 123.994C875.275 119.728 872.862 114.663 872.862 108.798C872.862 102.679 875.148 98.0448 879.718 94.8963C883.704 92.1541 889.011 90.7831 895.638 90.7831C899.396 90.7831 903.61 91.3289 908.282 92.4207L909.425 116.301ZM587.401 204.845H575.649L574.855 201.987C574.525 202.116 573.702 202.553 572.384 203.298C571.539 203.842 570.601 204.565 569.569 205.468L568.345 202.868C568.101 202.352 567.75 201.629 567.292 200.698L566.132 204.845H559.901C560.818 201.307 562.236 195.47 564.155 187.335C565.33 181.892 566.311 176.729 567.099 171.845H580.011C580.412 174.093 581.508 179.328 583.298 187.55C584.286 191.847 585.654 197.612 587.401 204.845ZM573.845 197.798C573.601 197.039 573.172 195.807 572.556 194.102C572.183 193.157 571.618 191.854 570.858 190.192C570.529 191.023 570.013 192.384 569.312 194.274C568.925 195.363 568.467 196.845 567.937 198.722C568.366 198.722 569.34 198.636 570.858 198.464C571.775 198.335 572.771 198.113 573.845 197.798ZM615.868 171.845C614.679 175.368 612.774 181.119 610.153 189.097C608.95 192.849 607.396 198.098 605.491 204.845H598.015C597.055 201.579 595.451 196.244 593.202 188.839C591.927 184.742 590.037 179.078 587.53 171.845H602.72C602.863 173.205 603.2 175.418 603.73 178.483C604.088 180.116 604.646 182.365 605.405 185.229C605.806 183.84 606.394 181.577 607.167 178.44C607.525 176.75 607.933 174.552 608.392 171.845H615.868ZM643.261 204.845H631.509L630.714 201.987C630.385 202.116 629.561 202.553 628.243 203.298C627.398 203.842 626.46 204.565 625.429 205.468L624.204 202.868C623.961 202.352 623.61 201.629 623.151 200.698L621.991 204.845H615.761C616.677 201.307 618.095 195.47 620.015 187.335C621.189 181.892 622.17 176.729 622.958 171.845H635.87C636.271 174.093 637.367 179.328 639.157 187.55C640.146 191.847 641.513 197.612 643.261 204.845ZM629.704 197.798C629.461 197.039 629.031 195.807 628.415 194.102C628.043 193.157 627.477 191.854 626.718 190.192C626.388 191.023 625.873 192.384 625.171 194.274C624.784 195.363 624.326 196.845 623.796 198.722C624.226 198.722 625.2 198.636 626.718 198.464C627.635 198.335 628.63 198.113 629.704 197.798ZM658.966 171.845L658.128 189.397C657.97 193.179 657.784 198.328 657.569 204.845H645.517L644.056 171.845H658.966ZM683.028 198.335C682.885 198.908 682.62 199.989 682.233 201.579C682.033 202.51 681.861 203.598 681.718 204.845H662.274C662.203 201.479 662.024 195.936 661.737 188.216C661.551 184.263 661.215 178.806 660.728 171.845H675.638L674.413 199.216C675.802 199.216 677.886 199.065 680.665 198.764C681.238 198.707 682.026 198.564 683.028 198.335ZM710.335 204.845H698.583L697.788 201.987C697.459 202.116 696.635 202.553 695.317 203.298C694.472 203.842 693.534 204.565 692.503 205.468L691.278 202.868C691.035 202.352 690.684 201.629 690.226 200.698L689.066 204.845H682.835C683.752 201.307 685.17 195.47 687.089 187.335C688.263 181.892 689.245 176.729 690.032 171.845H702.944C703.345 174.093 704.441 179.328 706.232 187.55C707.22 191.847 708.588 197.612 710.335 204.845ZM696.778 197.798C696.535 197.039 696.105 195.807 695.489 194.102C695.117 193.157 694.551 191.854 693.792 190.192C693.463 191.023 692.947 192.384 692.245 194.274C691.858 195.363 691.4 196.845 690.87 198.722C691.3 198.722 692.274 198.636 693.792 198.464C694.709 198.335 695.704 198.113 696.778 197.798ZM738.888 182.716C738.888 185.294 738.272 187.521 737.04 189.397C735.995 190.973 734.691 192.09 733.13 192.749C734.133 193.179 734.949 193.888 735.579 194.876C736.209 195.864 736.524 196.917 736.524 198.034C736.524 200.813 735.042 202.847 732.077 204.136C729.786 205.138 726.778 205.639 723.054 205.639C719.845 205.639 716.401 205.375 712.72 204.845C712.62 201.507 712.412 196.065 712.097 188.516C711.882 184.463 711.56 178.906 711.13 171.845C713.851 171.315 717.296 171.05 721.464 171.05C733.08 171.05 738.888 174.938 738.888 182.716ZM730.144 186.755C730.144 185.652 729.7 184.807 728.812 184.22C728.01 183.69 726.957 183.439 725.653 183.468L725.331 189.934C728.539 190.049 730.144 188.989 730.144 186.755ZM729.435 196.96C729.435 195.298 728.246 194.468 725.868 194.468C725.625 194.468 725.374 194.482 725.116 194.511L724.987 199.774C727.952 199.903 729.435 198.965 729.435 196.96ZM762.607 198.335C762.463 198.908 762.198 199.989 761.812 201.579C761.611 202.51 761.439 203.598 761.296 204.845H741.853C741.781 201.479 741.602 195.936 741.316 188.216C741.129 184.263 740.793 178.806 740.306 171.845H755.216L753.991 199.216C755.381 199.216 757.465 199.065 760.243 198.764C760.816 198.707 761.604 198.564 762.607 198.335ZM786.218 171.845L785.294 185.444C784.764 185.358 783.618 185.208 781.857 184.993C780.653 184.878 779.336 184.807 777.903 184.778L777.581 188.882C779.157 188.925 781.728 188.889 785.294 188.774C785.136 189.304 784.886 190.292 784.542 191.739C784.342 192.613 784.163 193.623 784.005 194.768C783.59 194.668 782.551 194.539 780.89 194.382C780.116 194.339 778.97 194.324 777.452 194.339L777.237 199.13C778.312 199.115 780.288 199.022 783.167 198.85C783.711 198.807 784.607 198.636 785.853 198.335C785.738 198.779 785.473 199.846 785.058 201.536C784.857 202.41 784.614 203.513 784.327 204.845H765.099L764.476 188.001C764.361 184.148 764.082 178.763 763.638 171.845H786.218ZM829.358 171.845C829.115 175.368 828.793 181.104 828.392 189.054C828.277 192.835 828.077 198.098 827.79 204.845H816.833L816.597 197.626C816.339 197.712 815.816 197.919 815.028 198.249C814.097 198.65 813.439 198.972 813.052 199.216L811.935 196.573C811.705 196 811.326 195.191 810.796 194.145L810.581 204.845H798.485L797.862 189.054C797.733 184.943 797.411 179.207 796.896 171.845H811.978L810.968 192.169C812.013 192.269 813.016 192.298 813.976 192.255C814.592 192.24 815.422 192.183 816.468 192.083L815.372 171.845H829.358ZM853.722 171.845L852.798 185.444C852.268 185.358 851.122 185.208 849.36 184.993C848.157 184.878 846.84 184.807 845.407 184.778L845.085 188.882C846.661 188.925 849.232 188.889 852.798 188.774C852.64 189.304 852.39 190.292 852.046 191.739C851.845 192.613 851.666 193.623 851.509 194.768C851.094 194.668 850.055 194.539 848.394 194.382C847.62 194.339 846.474 194.324 844.956 194.339L844.741 199.13C845.816 199.115 847.792 199.022 850.671 198.85C851.215 198.807 852.11 198.636 853.357 198.335C853.242 198.779 852.977 199.846 852.562 201.536C852.361 202.41 852.118 203.513 851.831 204.845H832.603L831.98 188.001C831.865 184.148 831.586 178.763 831.142 171.845H853.722ZM884.444 184.198C884.444 186.834 883.707 189.168 882.232 191.202C880.928 192.978 879.295 194.253 877.333 195.026C877.748 195.671 878.773 197.024 880.405 199.087C881.222 200.032 882.468 201.278 884.144 202.825C883.47 203.069 881.988 203.684 879.696 204.673C878.092 205.403 876.581 206.119 875.163 206.821C874.748 206.306 873.824 204.973 872.392 202.825C871.733 201.737 870.766 199.903 869.491 197.325H869.448L869.233 204.845H857.138C856.98 201.722 856.758 196.573 856.472 189.397C856.343 185.172 856.049 179.321 855.591 171.845C859.53 171.429 863.125 171.222 866.376 171.222C878.422 171.222 884.444 175.547 884.444 184.198ZM874.691 188.839C874.691 187.478 874.118 186.504 872.972 185.917C872.127 185.487 871.067 185.301 869.792 185.358L869.663 192.706C870.852 192.706 871.912 192.441 872.843 191.911C874.075 191.223 874.691 190.199 874.691 188.839ZM908.292 171.845L907.368 185.444C906.838 185.358 905.692 185.208 903.931 184.993C902.728 184.878 901.41 184.807 899.978 184.778L899.655 188.882C901.231 188.925 903.802 188.889 907.368 188.774C907.211 189.304 906.96 190.292 906.616 191.739C906.416 192.613 906.237 193.623 906.079 194.768C905.664 194.668 904.625 194.539 902.964 194.382C902.191 194.339 901.045 194.324 899.526 194.339L899.312 199.13C900.386 199.115 902.362 199.022 905.241 198.85C905.786 198.807 906.681 198.636 907.927 198.335C907.812 198.779 907.547 199.846 907.132 201.536C906.931 202.41 906.688 203.513 906.401 204.845H887.173L886.55 188.001C886.435 184.148 886.156 178.763 885.712 171.845H908.292Z" fill="#F9A826"/>
<g clip-path="url(#clip0)">
<path d="M633.941 495.049C633.941 495.049 634.399 485.835 643.786 486.906Z" fill="#3F3D56"/>
<path d="M631.289 486.281C633.884 486.281 635.987 484.261 635.987 481.769C635.987 479.277 633.884 477.257 631.289 477.257C628.695 477.257 626.591 479.277 626.591 481.769C626.591 484.261 628.695 486.281 631.289 486.281Z" fill="#F9A826"/>
<path d="M631.851 489.367H630.525V498.282H631.851V489.367Z" fill="#3F3D56"/>
<path d="M315.009 224.165C315.009 226.421 314.933 228.659 314.781 230.878C313.927 243.673 310.561 256.199 304.861 267.793C304.816 267.892 304.765 267.984 304.721 268.076C304.455 268.613 304.183 269.151 303.903 269.681C302.208 272.961 300.327 276.148 298.269 279.23C288.869 293.379 275.985 305.085 260.756 313.316C245.527 321.547 228.421 326.049 210.95 326.423L212.003 384.593L225.739 377.647L228.191 382.125L212.106 390.259L214.073 498.296L214.095 499.739L203.474 502.009L203.496 500.559L206.84 326.43C192.778 326.236 178.896 323.361 166 317.973C153.104 312.584 141.451 304.789 131.717 295.039C131.047 294.374 130.384 293.688 129.736 293.009C129.707 292.981 129.685 292.952 129.663 292.931C121.553 284.438 114.994 274.691 110.263 264.101C110.367 264.214 110.477 264.32 110.58 264.433C99.8875 240.419 99.1623 213.388 108.553 188.877C117.944 164.366 136.74 144.233 161.089 132.602C161.457 132.425 161.833 132.255 162.201 132.079C186.287 120.937 213.852 118.892 239.434 126.351C265.015 133.809 286.745 150.226 300.316 172.347C300.965 173.393 301.591 174.461 302.195 175.537C310.625 190.465 315.03 207.183 315.009 224.165Z" fill="#E5E5E5"/>
<path d="M300.673 268.132C377.769 268.132 440.268 208.108 440.268 134.066C440.268 60.0233 377.769 0 300.673 0C223.576 0 161.078 60.0233 161.078 134.066C161.078 208.108 223.576 268.132 300.673 268.132Z" fill="#F9A826"/>
<path opacity="0.2" d="M197.6 44.5204C167.292 112.608 200.195 191.4 271.091 220.507C297.989 231.551 327.819 234.201 356.369 228.083C384.92 221.965 410.748 207.388 430.207 186.412C399.902 254.501 317.862 286.105 246.964 257.001C176.066 227.896 143.159 149.105 173.464 81.0157C179.4 67.6767 187.552 55.3514 197.6 44.5204V44.5204Z" fill="black"/>
<path d="M308.227 507.547L293.968 503.707L293.997 502.235L298.269 279.23L298.483 268.111L298.49 267.786L299.234 228.826L300.317 172.354V172.347L301.053 134.066H301.443L302.195 175.537L303.174 229.513L303.874 267.814V268.097L303.903 269.674V269.681L305.258 344.34L305.398 351.759L308.197 506.062L308.227 507.547Z" fill="#3F3D56"/>
<path d="M323.258 335.237L300.183 346.905L303.398 352.771L326.474 341.103L323.258 335.237Z" fill="#3F3D56"/>
<path d="M297.938 534.536H232.116V535.951H297.938V534.536Z" fill="#CBCBCB"/>
<path d="M418.723 558.585H352.901V560H418.723V558.585Z" fill="#CBCBCB"/>
<path d="M606.53 540.195H540.708V541.61H606.53V540.195Z" fill="#CBCBCB"/>
<path d="M576.466 482.635V441.488C576.466 441.488 593.163 470.66 576.466 482.635Z" fill="#F1F1F1"/>
<path d="M577.497 482.628L545.935 454.801C545.935 454.801 579.603 462.717 577.497 482.628Z" fill="#F1F1F1"/>
<path d="M250.198 492.538V451.39C250.198 451.39 266.895 480.562 250.198 492.538Z" fill="#F1F1F1"/>
<path d="M251.229 492.531L219.667 464.704C219.667 464.704 253.335 472.619 251.229 492.531Z" fill="#F1F1F1"/>
<path d="M363.618 522.246V471.078C363.618 471.078 384.381 507.354 363.618 522.246Z" fill="#F1F1F1"/>
<path d="M364.901 522.237L325.653 487.633C325.653 487.633 367.52 497.476 364.901 522.237Z" fill="#F1F1F1"/>
<path d="M701 515.986L700.595 517.351L576.989 483.541L483.874 503.254L364.789 522.79L364.627 522.748L308.227 507.547L293.968 503.707L250.419 491.965L214.095 499.739L203.475 502.009L180.385 506.953L180.069 505.574L203.497 500.559L214.073 498.296L250.463 490.508L250.64 490.55L293.997 502.235L308.197 506.062L364.863 521.34L483.586 501.868L577.033 482.084L577.217 482.126L701 515.986Z" fill="#CBCBCB"/>
<path d="M479.861 85.8952L489.284 78.6569C481.963 77.8812 478.956 81.7156 477.725 84.7505C472.005 82.4698 465.779 85.4588 465.779 85.4588L484.634 92.0325C483.683 89.5925 482.027 87.4636 479.861 85.8952V85.8952Z" fill="#3F3D56"/>
<path d="M133.707 83.0659L143.13 75.8276C135.81 75.0519 132.802 78.8863 131.571 81.9212C125.852 79.6405 119.626 82.6295 119.626 82.6295L138.48 89.2032C137.529 86.7632 135.873 84.6343 133.707 83.0659V83.0659Z" fill="#3F3D56"/>
<path d="M459.239 220.994L468.662 213.756C461.341 212.98 458.334 216.814 457.103 219.849C451.383 217.569 445.158 220.558 445.158 220.558L464.012 227.131C463.061 224.691 461.405 222.562 459.239 220.994V220.994Z" fill="#3F3D56"/>
<path d="M448.714 407.487L380.098 401.66V299.1L448.714 295.604V407.487Z" fill="#F9A826"/>
<path d="M620.239 407.487L688.855 401.66V299.1L620.239 295.604V407.487Z" fill="#F9A826"/>
<g clip-path="url(#clip1)">
<path d="M659.624 353.2C659.294 353.2 659.027 352.775 659.027 352.251C659.027 351.727 659.294 351.303 659.623 351.303H659.624C659.953 351.303 660.22 351.727 660.22 352.251C660.22 352.775 659.953 353.2 659.624 353.2Z" fill="white"/>
<path d="M666.555 340.178C663.861 336.279 661.539 334.563 659.655 335.078C659.083 335.235 658.634 335.579 658.292 335.959C658.015 334.363 657.497 332.611 656.581 330.86C656.371 330.458 655.994 330.403 655.741 330.737C655.487 331.073 655.453 331.671 655.664 332.074C656.872 334.381 657.448 336.944 657.374 339.69C657.372 339.788 657.368 339.884 657.364 339.978C657.364 339.996 657.363 340.015 657.362 340.033C657.32 340.921 657.215 341.671 657.114 342.217C657.095 342.319 657.077 342.413 657.058 342.5C656.305 342.239 655.54 342.109 654.774 342.109C653.501 342.109 652.225 342.468 650.994 343.188C648.923 344.401 647.306 346.395 646.187 349.116C645.155 351.627 644.588 354.651 644.499 358.107C644.496 358.136 644.495 358.167 644.494 358.197C644.336 363.724 642.079 366.857 641.337 367.886C640.038 369.689 639.899 372.041 640.973 374.024C643.277 378.277 646.948 379.184 649.658 379.184H649.754C653.222 379.157 656.452 377.693 658.164 376.448C660.812 374.522 663.076 371.021 664.374 366.843C665.747 362.426 665.955 357.651 664.961 353.399C663.947 349.067 661.94 345.62 659.307 343.695C658.947 343.433 658.581 343.202 658.211 343.004C658.264 342.741 658.319 342.432 658.369 342.082C659.303 343.269 660.444 343.872 661.748 343.872C662.236 343.872 662.745 343.787 663.275 343.619C665.039 343.056 666.406 341.745 666.464 341.69C666.624 341.534 666.73 341.267 666.747 340.971C666.766 340.672 666.694 340.379 666.555 340.178V340.178ZM658.808 345.419C661.152 347.133 662.939 350.201 663.842 354.06C664.72 357.817 664.529 362.059 663.304 366.003C662.125 369.796 660.071 372.975 657.668 374.722C656.063 375.889 653.027 377.261 649.748 377.287C647.28 377.305 643.912 376.541 641.877 372.786C641.235 371.6 641.317 370.432 642.122 369.315C642.68 368.54 643.506 367.306 644.221 365.552C645.107 363.378 645.598 360.968 645.683 358.386C645.687 358.35 645.688 358.314 645.69 358.277C645.762 355.129 646.266 352.396 647.186 350.154C647.674 348.968 648.273 347.938 648.977 347.072C649.683 346.206 650.494 345.503 651.406 344.969C653.836 343.546 656.464 343.707 658.808 345.419V345.419ZM663.011 341.767C661.117 342.36 659.623 341.686 658.568 339.762C658.58 339.274 658.576 338.734 658.543 338.154C658.714 337.807 659.132 337.133 659.886 336.941C660.841 336.698 662.5 337.186 665.101 340.673C664.584 341.049 663.841 341.507 663.011 341.767Z" fill="white"/>
<path d="M656.765 372.72C656.538 372.72 656.322 372.515 656.222 372.166C656.085 371.69 656.216 371.126 656.516 370.908C658.243 369.652 659.719 367.369 660.566 364.643C661.443 361.82 661.581 358.786 660.953 356.101C660.838 355.61 660.995 355.064 661.304 354.881C661.613 354.699 661.957 354.949 662.072 355.44C662.815 358.62 662.66 362.187 661.636 365.484C660.67 368.594 658.985 371.2 657.013 372.634C656.932 372.692 656.848 372.72 656.765 372.72V372.72Z" fill="white"/>
</g>
<g clip-path="url(#clip2)">
<path d="M420.624 350.2C420.294 350.2 420.027 349.775 420.027 349.251C420.027 348.727 420.294 348.303 420.623 348.303H420.624C420.953 348.303 421.22 348.727 421.22 349.251C421.22 349.775 420.953 350.2 420.624 350.2Z" fill="white"/>
<path d="M427.555 337.178C424.861 333.279 422.539 331.563 420.655 332.078C420.083 332.235 419.634 332.579 419.292 332.959C419.015 331.363 418.497 329.611 417.581 327.86C417.371 327.458 416.994 327.403 416.741 327.737C416.487 328.073 416.453 328.671 416.664 329.074C417.872 331.381 418.448 333.944 418.375 336.69C418.372 336.788 418.368 336.884 418.364 336.978C418.364 336.996 418.363 337.015 418.362 337.033C418.32 337.921 418.215 338.671 418.114 339.217C418.095 339.319 418.077 339.413 418.058 339.5C417.306 339.239 416.54 339.109 415.774 339.109C414.501 339.109 413.225 339.468 411.994 340.188C409.923 341.401 408.306 343.395 407.187 346.116C406.155 348.627 405.588 351.651 405.499 355.107C405.496 355.136 405.495 355.167 405.494 355.197C405.336 360.724 403.079 363.857 402.337 364.886C401.038 366.689 400.899 369.041 401.973 371.024C404.277 375.277 407.948 376.184 410.658 376.184H410.754C414.223 376.157 417.452 374.693 419.164 373.448C421.812 371.522 424.076 368.021 425.374 363.843C426.747 359.426 426.955 354.651 425.961 350.399C424.947 346.067 422.94 342.62 420.307 340.695C419.947 340.433 419.581 340.202 419.211 340.004C419.264 339.741 419.319 339.432 419.369 339.082C420.303 340.269 421.444 340.872 422.748 340.872C423.236 340.872 423.745 340.787 424.275 340.619C426.039 340.056 427.406 338.745 427.464 338.69C427.624 338.534 427.73 338.267 427.747 337.971C427.766 337.672 427.694 337.379 427.555 337.178V337.178ZM419.808 342.419C422.152 344.133 423.939 347.201 424.842 351.06C425.72 354.817 425.529 359.059 424.304 363.003C423.125 366.796 421.071 369.975 418.668 371.722C417.063 372.889 414.027 374.261 410.748 374.287C408.28 374.305 404.912 373.541 402.877 369.786C402.235 368.6 402.317 367.432 403.122 366.315C403.68 365.54 404.506 364.306 405.221 362.552C406.107 360.378 406.598 357.968 406.683 355.386C406.687 355.35 406.688 355.314 406.69 355.277C406.762 352.129 407.266 349.396 408.186 347.154C408.674 345.968 409.273 344.938 409.977 344.072C410.683 343.206 411.494 342.503 412.406 341.969C414.836 340.546 417.464 340.707 419.808 342.419V342.419ZM424.011 338.767C422.117 339.36 420.623 338.686 419.568 336.762C419.58 336.274 419.576 335.734 419.543 335.154C419.714 334.807 420.132 334.133 420.886 333.941C421.841 333.698 423.5 334.186 426.101 337.673C425.584 338.049 424.841 338.507 424.011 338.767Z" fill="white"/>
<path d="M417.765 369.72C417.538 369.72 417.322 369.515 417.222 369.166C417.085 368.69 417.216 368.126 417.516 367.908C419.243 366.652 420.719 364.369 421.566 361.643C422.443 358.82 422.581 355.786 421.953 353.101C421.838 352.61 421.995 352.064 422.304 351.881C422.613 351.699 422.957 351.949 423.072 352.44C423.815 355.62 423.66 359.187 422.636 362.484C421.67 365.594 419.985 368.2 418.013 369.634C417.932 369.692 417.848 369.72 417.765 369.72V369.72Z" fill="white"/>
</g>
<path d="M604.797 297.02H464.156V406.071H604.797V297.02Z" fill="#F9A826"/>
<path d="M523.668 335.604L521.907 337.477C521.985 337.534 529.582 343.29 528.295 354.701C526.725 368.609 519.338 373.269 519.266 373.315L520.037 374.323L520.806 375.334C521.152 375.127 529.321 370.094 531.031 354.945C532.461 342.259 524.026 335.871 523.668 335.604Z" fill="white"/>
<path d="M579.162 385.291H575.037V382.854C575.037 380.871 573.611 379.117 571.488 378.488L570.065 378.069L569.383 377.766C567.721 377.03 565.731 377.139 564.183 378.053L563.191 378.638C562.493 377.53 561.313 376.727 559.917 376.419L556.579 375.679C556.171 375.588 555.746 375.541 555.317 375.541H551.662C549.425 375.541 547.446 376.805 546.737 378.688C546.623 378.993 546.302 379.198 545.939 379.198H542.656C542.095 379.198 541.541 379.277 541.018 379.433L540.828 379.488C538.272 380.243 536.782 382.65 537.435 384.97L537.526 385.291H532.412C531.652 385.291 531.037 385.836 531.037 386.51C531.037 389.87 534.121 392.604 537.912 392.604H573.662C577.453 392.604 580.537 389.87 580.537 386.51C580.537 385.836 579.922 385.291 579.162 385.291ZM540.102 384.379C539.796 383.288 540.497 382.157 541.696 381.802L541.888 381.746C542.133 381.672 542.393 381.635 542.656 381.635H545.939C547.489 381.635 548.858 380.76 549.346 379.459C549.679 378.574 550.609 377.979 551.662 377.979H555.317C555.517 377.979 555.715 378.001 555.909 378.044L559.252 378.783C559.944 378.937 560.522 379.349 560.843 379.917C561.167 380.493 561.759 380.919 562.463 381.084C563.168 381.253 563.917 381.139 564.524 380.782L565.708 380.083C566.436 379.651 567.373 379.6 568.151 379.947L568.921 380.288C568.98 380.314 569.041 380.336 569.102 380.356L570.619 380.802C571.616 381.097 572.287 381.92 572.287 382.854V385.291H546.162V382.854H544.787V385.291H540.359L540.102 384.379ZM573.662 390.166H537.912C536.119 390.166 534.59 389.148 534.022 387.729H577.552C576.984 389.148 575.455 390.166 573.662 390.166Z" fill="white"/>
<path d="M553.037 379.198H554.412V381.635H553.037V379.198Z" fill="white"/>
<path d="M558.537 380.416H559.912V382.854H558.537V380.416Z" fill="white"/>
<path d="M566.787 381.635H568.162V384.073H566.787V381.635Z" fill="white"/>
<path d="M550.292 357.455C551.905 360.146 553.609 361.678 553.72 361.778L555.665 360.055C555.64 360.033 554.015 358.561 552.531 355.974C554.757 354.548 557.268 353.086 559.942 351.769C561.767 355.709 564.302 357.999 564.44 358.122L566.384 356.399C566.355 356.372 564.019 354.26 562.391 350.629C565.658 349.196 569.104 348.043 572.533 347.491L572.042 345.093C568.453 345.671 564.889 346.835 561.522 348.28C561.427 347.953 561.339 347.616 561.261 347.271C560.806 345.254 561.026 343.37 561.484 341.793C564.427 340.835 567.602 340.198 570.912 340.198V337.76C568.063 337.76 565.32 338.168 562.735 338.833C563.282 337.864 563.751 337.286 563.765 337.27L562.662 336.541L561.562 335.81C561.463 335.927 560.177 337.486 559.238 339.914C556.351 340.955 553.726 342.263 551.45 343.605C552.195 341.967 553.027 340.947 553.045 340.925L551.942 340.198L550.842 339.466C550.715 339.618 548.589 342.185 547.816 345.949C544.572 348.232 542.591 350.152 542.389 350.351L544.432 351.982C544.468 351.946 545.611 350.843 547.564 349.332C547.602 350.005 547.683 350.695 547.844 351.405C548.154 352.784 548.6 354.034 549.104 355.164C544.425 358.321 541.343 361.027 541.063 361.274L543.008 362.997C543.074 362.94 545.912 360.447 550.292 357.455ZM550.541 350.928C550.254 349.65 550.242 348.43 550.383 347.303C552.6 345.812 555.328 344.216 558.426 342.913C558.192 344.387 558.174 346.017 558.564 347.75C558.695 348.329 558.855 348.88 559.028 349.416C556.278 350.742 553.702 352.216 551.406 353.665C551.064 352.822 550.763 351.911 550.541 350.928Z" fill="white"/>
<path d="M533.682 375.866C538.692 375.866 548.174 374.835 563.186 369.356C571.458 366.337 576.857 362.078 579.24 356.697C582.056 350.336 579.642 344.614 579.123 343.521C577.887 335.753 572.754 333.041 568.651 332.137C559.637 330.144 546.469 335.24 538.509 343.446C537.769 340.806 536.558 338.49 534.888 336.539C531.275 332.317 525.758 329.695 519.916 329.307C520.239 326.966 521.552 321.916 526.912 321.916V319.479C521.582 319.479 518.929 323.007 517.786 326.421C515.971 322.361 511.506 319.479 506.287 319.479H502.162C501.402 319.479 500.787 320.024 500.787 320.698C500.787 325.614 504.455 329.785 509.493 331.174C505.032 333.198 501.359 336.684 499.404 341.061C495.844 349.031 500.01 356.598 503.687 363.275L504.473 364.708C505.234 366.103 505.388 368.188 504.948 371.082C504.82 371.924 504.556 372.802 504.275 373.732C503.578 376.041 502.789 378.658 504.171 381.221C505.582 383.836 508.635 385.443 511.825 385.443C512.6 385.443 513.385 385.348 514.155 385.149C520.65 383.477 525.974 380.256 530.063 375.64C530.77 375.743 531.957 375.866 533.682 375.866ZM576.679 355.807C574.582 360.547 569.69 364.346 562.138 367.103C553.29 370.331 546.449 371.958 541.398 372.744C553.738 369.266 572.288 362.451 577.742 351.876C577.603 353.12 577.281 354.449 576.679 355.807ZM567.987 334.502C572.796 335.563 575.635 338.763 576.424 344.015C578.898 360.456 543.511 369.918 532.559 372.44C535.79 367.671 537.97 361.754 539.006 354.762C539.43 351.907 539.464 349.185 539.137 346.649C546.225 338.139 559.317 332.593 567.987 334.502ZM503.635 321.916H506.287C511.128 321.916 515.145 325.1 515.814 329.229H513.162C508.321 329.229 504.304 326.046 503.635 321.916ZM513.387 382.808C510.776 383.476 507.812 382.323 506.653 380.168C505.708 378.416 506.303 376.447 506.933 374.36C507.223 373.398 507.523 372.403 507.674 371.406C508.189 368.024 507.952 365.487 506.951 363.648L506.16 362.205C502.565 355.678 498.848 348.929 501.961 341.958C504.71 335.803 511.328 331.666 518.432 331.666C523.961 331.666 529.293 334.039 532.697 338.014C534.617 340.26 535.848 343.097 536.354 346.449C536.727 348.918 536.701 351.608 536.28 354.445C533.981 369.946 526.278 379.489 513.387 382.808Z" fill="white"/>
<path d="M587.096 439.49L578.467 435.386V437.731H558.331V441.249H578.467V443.594L587.096 439.49Z" fill="white"/>
<path d="M481.857 439.49L490.486 435.386V437.731H510.622V441.249H490.486V443.594L481.857 439.49Z" fill="white"/>
<path d="M589.973 535.643H479.515V536.816H589.973V535.643Z" fill="white"/>
</g>
<defs>
<clipPath id="clip0">
<rect width="599" height="560" fill="white" transform="translate(102)"/>
</clipPath>
<clipPath id="clip1">
<rect width="30.553" height="48.6662" fill="white" transform="translate(638.167 330.518)"/>
</clipPath>
<clipPath id="clip2">
<rect width="30.553" height="48.6662" fill="white" transform="translate(399.167 327.518)"/>
</clipPath>
</defs>
</svg>
